<svg xmlns="http://www.w3.org/2000/svg" id="export" class="canvas" preserveAspectRatio="xMidYMid meet" style="" width="765" height="185"><rect id="background" fill="#fff" pointer-events="all" width="765" height="185"/><g id="origin" transform="translate(8.371093750000108, 8.37109375) scale(1)"><g id="clusters" class="clusters"/><g id="edge-paths" class="edge-paths" style="pointer-events: none;"><defs><marker id="arrowhead" viewBox="0 0 10 10" refX="9" refY="5" markerUnits="strokeWidth" markerWidth="8" markerHeight="6" orient="auto" style="fill: rgb(0, 0, 0);"><path d="M 0 0 L 10 5 L 0 10 L 4 5 z" style="stroke-width: 1;"/></marker><marker id="arrowhead-select" viewBox="0 0 10 10" refX="9" refY="5" markerUnits="strokeWidth" markerWidth="8" markerHeight="6" orient="auto" style="fill: rgba(220, 0, 0, 0.9);"><path d="M 0 0 L 10 5 L 0 10 L 4 5 z" style="stroke-width: 1;"/></marker><marker id="arrowhead-hover" viewBox="0 0 10 10" refX="9" refY="5" markerUnits="strokeWidth" markerWidth="8" markerHeight="6" orient="auto" style="fill: rgba(220, 0, 0, 0.9);"><path d="M 0 0 L 10 5 L 0 10 L 4 5 z" style="stroke-width: 1;"/></marker></defs><path id="edge-input_layer" class="edge-path" d="M72.703125,83.7109375L74.36979166666667,83.7109375C76.03645833333333,83.7109375,79.36979166666667,83.7109375,87.203125,83.7109375C95.03645833333333,83.7109375,107.36979166666667,83.7109375,119.703125,83.7109375C132.03645833333334,83.7109375,144.36979166666666,83.7109375,152.203125,83.7109375C160.03645833333334,83.7109375,163.36979166666666,83.7109375,165.03645833333334,83.7109375L166.703125,83.7109375" style="stroke: rgb(0, 0, 0); stroke-width: 1px; fill: none; marker-end: url(&quot;#arrowhead&quot;);"/><path id="edge-lstm" class="edge-path" d="M315.09375,83.7109375L318.4752604166667,83.7109375C321.8567708333333,83.7109375,328.6197916666667,83.7109375,335.3828125,83.7109375C342.1458333333333,83.7109375,348.9088541666667,83.7109375,352.2903645833333,83.7109375L355.671875,83.7109375" style="stroke: rgb(0, 0, 0); stroke-width: 1px; fill: none; marker-end: url(&quot;#arrowhead&quot;);"/><path id="edge-lstm_1" class="edge-path" d="M504.0625,83.7109375L508.3359375,83.7109375C512.609375,83.7109375,521.15625,83.7109375,529.703125,83.7109375C538.25,83.7109375,546.796875,83.7109375,551.0703125,83.7109375L555.34375,83.7109375" style="stroke: rgb(0, 0, 0); stroke-width: 1px; fill: none; marker-end: url(&quot;#arrowhead&quot;);"/><path id="edge-dense" class="edge-path" d="M652.828125,83.7109375L656.9309895833334,83.7109375C661.0338541666666,83.7109375,669.2395833333334,83.7109375,677.4453125,83.7109375C685.6510416666666,83.7109375,693.8567708333334,83.7109375,697.9596354166666,83.7109375L702.0625,83.7109375" style="stroke: rgb(0, 0, 0); stroke-width: 1px; fill: none; marker-end: url(&quot;#arrowhead&quot;);"/></g><g id="edge-labels" class="edge-labels"><text class="edge-label" id="edge-label-edge-input_layer" transform="translate(92.703125,93.7109375)" style="opacity: 1; font-family: -apple-system, BlinkMacSystemFont, &quot;Segoe WPC&quot;, &quot;Segoe UI&quot;, Ubuntu, &quot;Droid Sans&quot;, sans-serif, &quot;PingFang SC&quot;; font-size: 10px;"><tspan xml:space="preserve" dy="1em" x="1">input_layer</tspan></text><text class="edge-label" id="edge-label-edge-lstm" transform="translate(325.09375,93.7109375)" style="opacity: 1; font-family: -apple-system, BlinkMacSystemFont, &quot;Segoe WPC&quot;, &quot;Segoe UI&quot;, Ubuntu, &quot;Droid Sans&quot;, sans-serif, &quot;PingFang SC&quot;; font-size: 10px;"><tspan xml:space="preserve" dy="1em" x="1">lstm</tspan></text><text class="edge-label" id="edge-label-edge-lstm_1" transform="translate(514.0625,93.7109375)" style="opacity: 1; font-family: -apple-system, BlinkMacSystemFont, &quot;Segoe WPC&quot;, &quot;Segoe UI&quot;, Ubuntu, &quot;Droid Sans&quot;, sans-serif, &quot;PingFang SC&quot;; font-size: 10px;"><tspan xml:space="preserve" dy="1em" x="1">lstm_1</tspan></text><text class="edge-label" id="edge-label-edge-dense" transform="translate(662.828125,93.7109375)" style="opacity: 1; font-family: -apple-system, BlinkMacSystemFont, &quot;Segoe WPC&quot;, &quot;Segoe UI&quot;, Ubuntu, &quot;Droid Sans&quot;, sans-serif, &quot;PingFang SC&quot;; font-size: 10px;"><tspan xml:space="preserve" dy="1em" x="1">dense</tspan></text></g><g id="nodes" class="nodes"><g id="input-name-input_layer" class="node graph-input" transform="translate(0,73.2265625)" style=""><g class="node-item graph-item-input" transform="translate(0,0)"><path d="M5,0h62.703125a5,5 0 0 1 5,5v10.96875a5,5 0 0 1 -5,5h-62.703125a5,5 0 0 1 -5,-5v-10.96875a5,5 0 0 1 5,-5z" style="stroke: rgb(0, 0, 0); fill: rgb(238, 238, 238); stroke-width: 0px;"/><text x="6" y="14.640625" style="font-family: -apple-system, BlinkMacSystemFont, &quot;Segoe WPC&quot;, &quot;Segoe UI&quot;, Ubuntu, &quot;Droid Sans&quot;, sans-serif, &quot;PingFang SC&quot;; font-size: 11px; text-rendering: geometricprecision;">input_layer</text><title>float32</title></g><path class="node node-border" d="M5,0h62.703125a5,5 0 0 1 5,5v10.96875a5,5 0 0 1 -5,5h-62.703125a5,5 0 0 1 -5,-5v-10.96875a5,5 0 0 1 5,-5z" style="stroke: rgb(51, 51, 51); fill: none; stroke-width: 1px;"/></g><g id="node-name-lstm" class="node graph-node" transform="translate(166.703125,0)" style=""><g class="node-item node-item-type node-item-type-layer" transform="translate(0,0)"><path d="M5,0h138.390625a5,5 0 0 1 5,5v15.96875a0,0 0 0 1 0,0h-148.390625a0,0 0 0 1 0,0v-15.96875a5,5 0 0 1 5,-5z" style="stroke: rgb(0, 0, 0); fill: rgb(51, 85, 136); stroke-width: 0px;"/><text x="6" y="14.640625" style="font-family: -apple-system, BlinkMacSystemFont, &quot;Segoe WPC&quot;, &quot;Segoe UI&quot;, Ubuntu, &quot;Droid Sans&quot;, sans-serif, &quot;PingFang SC&quot;; font-size: 11px; text-rendering: geometricprecision; fill: rgb(255, 255, 255);">lstm</text><title>[LSTM]</title></g><g class="node-argument-list" transform="translate(0,20.96875)"><path d="M0,0h148.390625a0,0 0 0 1 0,0v106.875a0,0 0 0 1 0,0h-148.390625a0,0 0 0 1 0,0v-106.875a0,0 0 0 1 0,0z" style="stroke: rgb(0, 0, 0); fill: rgb(255, 255, 255); stroke-width: 0px;"/><g class="node-argument"><rect rx="3" ry="3" x="3" y="3" width="142.390625" height="12.609375" style="fill: transparent;"/><text xml:space="preserve" x="6" y="12.703125" style="font-family: -apple-system, BlinkMacSystemFont, &quot;Segoe WPC&quot;, &quot;Segoe UI&quot;, Ubuntu, &quot;Droid Sans&quot;, sans-serif, &quot;PingFang SC&quot;; font-size: 9px; font-weight: normal; text-rendering: geometricprecision;"><title>float32[1,400]</title><tspan style="font-weight: bold;">kernel</tspan><tspan>〈1×400〉</tspan></text></g><g class="node-argument"><rect rx="3" ry="3" x="3" y="15.609375" width="142.390625" height="12.609375" style="fill: transparent;"/><text xml:space="preserve" x="6" y="25.3125" style="font-family: -apple-system, BlinkMacSystemFont, &quot;Segoe WPC&quot;, &quot;Segoe UI&quot;, Ubuntu, &quot;Droid Sans&quot;, sans-serif, &quot;PingFang SC&quot;; font-size: 9px; font-weight: normal; text-rendering: geometricprecision;"><title>float32[100,400]</title><tspan style="font-weight: bold;">recurrent_kernel</tspan><tspan>〈100×400〉</tspan></text></g><g class="node-argument"><rect rx="3" ry="3" x="3" y="28.21875" width="142.390625" height="12.609375" style="fill: transparent;"/><text xml:space="preserve" x="6" y="37.921875" style="font-family: -apple-system, BlinkMacSystemFont, &quot;Segoe WPC&quot;, &quot;Segoe UI&quot;, Ubuntu, &quot;Droid Sans&quot;, sans-serif, &quot;PingFang SC&quot;; font-size: 9px; font-weight: normal; text-rendering: geometricprecision;"><title>float32[400]</title><tspan style="font-weight: bold;">bias</tspan><tspan>〈400〉</tspan></text></g><g class="node-argument"><rect rx="3" ry="3" x="3" y="40.828125" width="142.390625" height="12.609375" style="fill: transparent;"/><text xml:space="preserve" x="6" y="50.53125" style="font-family: -apple-system, BlinkMacSystemFont, &quot;Segoe WPC&quot;, &quot;Segoe UI&quot;, Ubuntu, &quot;Droid Sans&quot;, sans-serif, &quot;PingFang SC&quot;; font-size: 9px; font-weight: normal; text-rendering: geometricprecision;"><tspan>recurrent_activation</tspan><tspan> = sigmoid</tspan></text></g><g class="node-argument"><rect rx="3" ry="3" x="3" y="53.4375" width="142.390625" height="12.609375" style="fill: transparent;"/><text xml:space="preserve" x="6" y="63.140625" style="font-family: -apple-system, BlinkMacSystemFont, &quot;Segoe WPC&quot;, &quot;Segoe UI&quot;, Ubuntu, &quot;Droid Sans&quot;, sans-serif, &quot;PingFang SC&quot;; font-size: 9px; font-weight: normal; text-rendering: geometricprecision;"><tspan>return_sequences</tspan><tspan> = true</tspan></text></g><g class="node-argument"><rect rx="3" ry="3" x="3" y="66.046875" width="142.390625" height="12.609375" style="fill: transparent;"/><text xml:space="preserve" x="6" y="75.75" style="font-family: -apple-system, BlinkMacSystemFont, &quot;Segoe WPC&quot;, &quot;Segoe UI&quot;, Ubuntu, &quot;Droid Sans&quot;, sans-serif, &quot;PingFang SC&quot;; font-size: 9px; font-weight: normal; text-rendering: geometricprecision;"><tspan>seed</tspan><tspan> = </tspan></text></g><g class="node-argument"><rect rx="3" ry="3" x="3" y="78.65625" width="142.390625" height="12.609375" style="fill: transparent;"/><text xml:space="preserve" x="6" y="88.359375" style="font-family: -apple-system, BlinkMacSystemFont, &quot;Segoe WPC&quot;, &quot;Segoe UI&quot;, Ubuntu, &quot;Droid Sans&quot;, sans-serif, &quot;PingFang SC&quot;; font-size: 9px; font-weight: normal; text-rendering: geometricprecision;"><tspan>units</tspan><tspan> = 100</tspan></text></g><g class="node-argument"><rect rx="3" ry="3" x="3" y="91.265625" width="142.390625" height="12.609375" style="fill: transparent;"/><text xml:space="preserve" x="6" y="100.96875" style="font-family: -apple-system, BlinkMacSystemFont, &quot;Segoe WPC&quot;, &quot;Segoe UI&quot;, Ubuntu, &quot;Droid Sans&quot;, sans-serif, &quot;PingFang SC&quot;; font-size: 9px; font-weight: normal; text-rendering: geometricprecision;"><tspan>zero_output_for_mask</tspan><tspan> = false</tspan></text></g><line class="node" x1="0" x2="148.390625" y1="0" y2="0" style="stroke: rgb(51, 51, 51); fill: none; stroke-width: 1px;"/></g><g class="node-item node-item-type node-item-type-activation" transform="translate(0,127.84375)"><path d="M0,0h148.390625a0,0 0 0 1 0,0v20.96875a0,0 0 0 1 0,0h-148.390625a0,0 0 0 1 0,0v-20.96875a0,0 0 0 1 0,0z" style="stroke: rgb(0, 0, 0); fill: rgb(112, 41, 33); stroke-width: 0px;"/><text x="6" y="14.640625" style="font-family: -apple-system, BlinkMacSystemFont, &quot;Segoe WPC&quot;, &quot;Segoe UI&quot;, Ubuntu, &quot;Droid Sans&quot;, sans-serif, &quot;PingFang SC&quot;; font-size: 11px; text-rendering: geometricprecision; fill: rgb(255, 255, 255);">Activation</text></g><line class="node" x1="0" x2="148.390625" y1="127.84375" y2="127.84375" style="stroke: rgb(51, 51, 51); fill: none; stroke-width: 1px;"/><g class="node-argument-list" transform="translate(0,148.8125)"><path d="M0,0h148.390625a0,0 0 0 1 0,0v13.609375a5,5 0 0 1 -5,5h-138.390625a5,5 0 0 1 -5,-5v-13.609375a0,0 0 0 1 0,0z" style="stroke: rgb(0, 0, 0); fill: rgb(255, 255, 255); stroke-width: 0px;"/><g class="node-argument"><rect rx="3" ry="3" x="3" y="3" width="142.390625" height="12.609375" style="fill: transparent;"/><text xml:space="preserve" x="6" y="12.703125" style="font-family: -apple-system, BlinkMacSystemFont, &quot;Segoe WPC&quot;, &quot;Segoe UI&quot;, Ubuntu, &quot;Droid Sans&quot;, sans-serif, &quot;PingFang SC&quot;; font-size: 9px; font-weight: normal; text-rendering: geometricprecision;"><tspan>activation</tspan><tspan> = tanh</tspan></text></g><line class="node" x1="0" x2="148.390625" y1="0" y2="0" style="stroke: rgb(51, 51, 51); fill: none; stroke-width: 1px;"/></g><path class="node node-border" d="M5,0h138.390625a5,5 0 0 1 5,5v157.421875a5,5 0 0 1 -5,5h-138.390625a5,5 0 0 1 -5,-5v-157.421875a5,5 0 0 1 5,-5z" style="stroke: rgb(51, 51, 51); fill: none; stroke-width: 1px;"/></g><g id="node-name-lstm_1" class="node graph-node" transform="translate(355.671875,6.3046875)" style=""><g class="node-item node-item-type node-item-type-layer" transform="translate(0,0)"><path d="M5,0h138.390625a5,5 0 0 1 5,5v15.96875a0,0 0 0 1 0,0h-148.390625a0,0 0 0 1 0,0v-15.96875a5,5 0 0 1 5,-5z" style="stroke: rgb(0, 0, 0); fill: rgb(51, 85, 136); stroke-width: 0px;"/><text x="6" y="14.640625" style="font-family: -apple-system, BlinkMacSystemFont, &quot;Segoe WPC&quot;, &quot;Segoe UI&quot;, Ubuntu, &quot;Droid Sans&quot;, sans-serif, &quot;PingFang SC&quot;; font-size: 11px; text-rendering: geometricprecision; fill: rgb(255, 255, 255);">lstm_1</text><title>[LSTM]</title></g><g class="node-argument-list" transform="translate(0,20.96875)"><path d="M0,0h148.390625a0,0 0 0 1 0,0v94.265625a0,0 0 0 1 0,0h-148.390625a0,0 0 0 1 0,0v-94.265625a0,0 0 0 1 0,0z" style="stroke: rgb(0, 0, 0); fill: rgb(255, 255, 255); stroke-width: 0px;"/><g class="node-argument"><rect rx="3" ry="3" x="3" y="3" width="142.390625" height="12.609375" style="fill: transparent;"/><text xml:space="preserve" x="6" y="12.703125" style="font-family: -apple-system, BlinkMacSystemFont, &quot;Segoe WPC&quot;, &quot;Segoe UI&quot;, Ubuntu, &quot;Droid Sans&quot;, sans-serif, &quot;PingFang SC&quot;; font-size: 9px; font-weight: normal; text-rendering: geometricprecision;"><title>float32[100,400]</title><tspan style="font-weight: bold;">kernel</tspan><tspan>〈100×400〉</tspan></text></g><g class="node-argument"><rect rx="3" ry="3" x="3" y="15.609375" width="142.390625" height="12.609375" style="fill: transparent;"/><text xml:space="preserve" x="6" y="25.3125" style="font-family: -apple-system, BlinkMacSystemFont, &quot;Segoe WPC&quot;, &quot;Segoe UI&quot;, Ubuntu, &quot;Droid Sans&quot;, sans-serif, &quot;PingFang SC&quot;; font-size: 9px; font-weight: normal; text-rendering: geometricprecision;"><title>float32[100,400]</title><tspan style="font-weight: bold;">recurrent_kernel</tspan><tspan>〈100×400〉</tspan></text></g><g class="node-argument"><rect rx="3" ry="3" x="3" y="28.21875" width="142.390625" height="12.609375" style="fill: transparent;"/><text xml:space="preserve" x="6" y="37.921875" style="font-family: -apple-system, BlinkMacSystemFont, &quot;Segoe WPC&quot;, &quot;Segoe UI&quot;, Ubuntu, &quot;Droid Sans&quot;, sans-serif, &quot;PingFang SC&quot;; font-size: 9px; font-weight: normal; text-rendering: geometricprecision;"><title>float32[400]</title><tspan style="font-weight: bold;">bias</tspan><tspan>〈400〉</tspan></text></g><g class="node-argument"><rect rx="3" ry="3" x="3" y="40.828125" width="142.390625" height="12.609375" style="fill: transparent;"/><text xml:space="preserve" x="6" y="50.53125" style="font-family: -apple-system, BlinkMacSystemFont, &quot;Segoe WPC&quot;, &quot;Segoe UI&quot;, Ubuntu, &quot;Droid Sans&quot;, sans-serif, &quot;PingFang SC&quot;; font-size: 9px; font-weight: normal; text-rendering: geometricprecision;"><tspan>recurrent_activation</tspan><tspan> = sigmoid</tspan></text></g><g class="node-argument"><rect rx="3" ry="3" x="3" y="53.4375" width="142.390625" height="12.609375" style="fill: transparent;"/><text xml:space="preserve" x="6" y="63.140625" style="font-family: -apple-system, BlinkMacSystemFont, &quot;Segoe WPC&quot;, &quot;Segoe UI&quot;, Ubuntu, &quot;Droid Sans&quot;, sans-serif, &quot;PingFang SC&quot;; font-size: 9px; font-weight: normal; text-rendering: geometricprecision;"><tspan>seed</tspan><tspan> = </tspan></text></g><g class="node-argument"><rect rx="3" ry="3" x="3" y="66.046875" width="142.390625" height="12.609375" style="fill: transparent;"/><text xml:space="preserve" x="6" y="75.75" style="font-family: -apple-system, BlinkMacSystemFont, &quot;Segoe WPC&quot;, &quot;Segoe UI&quot;, Ubuntu, &quot;Droid Sans&quot;, sans-serif, &quot;PingFang SC&quot;; font-size: 9px; font-weight: normal; text-rendering: geometricprecision;"><tspan>units</tspan><tspan> = 100</tspan></text></g><g class="node-argument"><rect rx="3" ry="3" x="3" y="78.65625" width="142.390625" height="12.609375" style="fill: transparent;"/><text xml:space="preserve" x="6" y="88.359375" style="font-family: -apple-system, BlinkMacSystemFont, &quot;Segoe WPC&quot;, &quot;Segoe UI&quot;, Ubuntu, &quot;Droid Sans&quot;, sans-serif, &quot;PingFang SC&quot;; font-size: 9px; font-weight: normal; text-rendering: geometricprecision;"><tspan>zero_output_for_mask</tspan><tspan> = false</tspan></text></g><line class="node" x1="0" x2="148.390625" y1="0" y2="0" style="stroke: rgb(51, 51, 51); fill: none; stroke-width: 1px;"/></g><g class="node-item node-item-type node-item-type-activation" transform="translate(0,115.234375)"><path d="M0,0h148.390625a0,0 0 0 1 0,0v20.96875a0,0 0 0 1 0,0h-148.390625a0,0 0 0 1 0,0v-20.96875a0,0 0 0 1 0,0z" style="stroke: rgb(0, 0, 0); fill: rgb(112, 41, 33); stroke-width: 0px;"/><text x="6" y="14.640625" style="font-family: -apple-system, BlinkMacSystemFont, &quot;Segoe WPC&quot;, &quot;Segoe UI&quot;, Ubuntu, &quot;Droid Sans&quot;, sans-serif, &quot;PingFang SC&quot;; font-size: 11px; text-rendering: geometricprecision; fill: rgb(255, 255, 255);">Activation</text></g><line class="node" x1="0" x2="148.390625" y1="115.234375" y2="115.234375" style="stroke: rgb(51, 51, 51); fill: none; stroke-width: 1px;"/><g class="node-argument-list" transform="translate(0,136.203125)"><path d="M0,0h148.390625a0,0 0 0 1 0,0v13.609375a5,5 0 0 1 -5,5h-138.390625a5,5 0 0 1 -5,-5v-13.609375a0,0 0 0 1 0,0z" style="stroke: rgb(0, 0, 0); fill: rgb(255, 255, 255); stroke-width: 0px;"/><g class="node-argument"><rect rx="3" ry="3" x="3" y="3" width="142.390625" height="12.609375" style="fill: transparent;"/><text xml:space="preserve" x="6" y="12.703125" style="font-family: -apple-system, BlinkMacSystemFont, &quot;Segoe WPC&quot;, &quot;Segoe UI&quot;, Ubuntu, &quot;Droid Sans&quot;, sans-serif, &quot;PingFang SC&quot;; font-size: 9px; font-weight: normal; text-rendering: geometricprecision;"><tspan>activation</tspan><tspan> = tanh</tspan></text></g><line class="node" x1="0" x2="148.390625" y1="0" y2="0" style="stroke: rgb(51, 51, 51); fill: none; stroke-width: 1px;"/></g><path class="node node-border" d="M5,0h138.390625a5,5 0 0 1 5,5v144.8125a5,5 0 0 1 -5,5h-138.390625a5,5 0 0 1 -5,-5v-144.8125a5,5 0 0 1 5,-5z" style="stroke: rgb(51, 51, 51); fill: none; stroke-width: 1px;"/></g><g id="node-name-dense" class="node graph-node" transform="translate(555.34375,38.703125)" style=""><g class="node-item node-item-type node-item-type-layer" transform="translate(0,0)"><path d="M5,0h87.484375a5,5 0 0 1 5,5v15.96875a0,0 0 0 1 0,0h-97.484375a0,0 0 0 1 0,0v-15.96875a5,5 0 0 1 5,-5z" style="stroke: rgb(0, 0, 0); fill: rgb(51, 85, 136); stroke-width: 0px;"/><text x="6" y="14.640625" style="font-family: -apple-system, BlinkMacSystemFont, &quot;Segoe WPC&quot;, &quot;Segoe UI&quot;, Ubuntu, &quot;Droid Sans&quot;, sans-serif, &quot;PingFang SC&quot;; font-size: 11px; text-rendering: geometricprecision; fill: rgb(255, 255, 255);">dense</text><title>[Dense]</title></g><g class="node-argument-list" transform="translate(0,20.96875)"><path d="M0,0h97.484375a0,0 0 0 1 0,0v64.046875a5,5 0 0 1 -5,5h-87.484375a5,5 0 0 1 -5,-5v-64.046875a0,0 0 0 1 0,0z" style="stroke: rgb(0, 0, 0); fill: rgb(255, 255, 255); stroke-width: 0px;"/><g class="node-argument"><rect rx="3" ry="3" x="3" y="3" width="91.484375" height="12.609375" style="fill: transparent;"/><text xml:space="preserve" x="6" y="12.703125" style="font-family: -apple-system, BlinkMacSystemFont, &quot;Segoe WPC&quot;, &quot;Segoe UI&quot;, Ubuntu, &quot;Droid Sans&quot;, sans-serif, &quot;PingFang SC&quot;; font-size: 9px; font-weight: normal; text-rendering: geometricprecision;"><title>float32[100,1]</title><tspan style="font-weight: bold;">kernel</tspan><tspan>〈100×1〉</tspan></text></g><g class="node-argument"><rect rx="3" ry="3" x="3" y="15.609375" width="91.484375" height="12.609375" style="fill: transparent;"/><text xml:space="preserve" x="6" y="25.3125" style="font-family: -apple-system, BlinkMacSystemFont, &quot;Segoe WPC&quot;, &quot;Segoe UI&quot;, Ubuntu, &quot;Droid Sans&quot;, sans-serif, &quot;PingFang SC&quot;; font-size: 9px; font-weight: normal; text-rendering: geometricprecision;"><title>float32[1]</title><tspan style="font-weight: bold;">bias</tspan><tspan>〈1〉</tspan></text></g><g class="node-argument"><rect rx="3" ry="3" x="3" y="28.21875" width="91.484375" height="12.609375" style="fill: transparent;"/><text xml:space="preserve" x="6" y="37.921875" style="font-family: -apple-system, BlinkMacSystemFont, &quot;Segoe WPC&quot;, &quot;Segoe UI&quot;, Ubuntu, &quot;Droid Sans&quot;, sans-serif, &quot;PingFang SC&quot;; font-size: 9px; font-weight: normal; text-rendering: geometricprecision;"><tspan>bias_constraint</tspan><tspan> = </tspan></text></g><g class="node-argument"><rect rx="3" ry="3" x="3" y="40.828125" width="91.484375" height="12.609375" style="fill: transparent;"/><text xml:space="preserve" x="6" y="50.53125" style="font-family: -apple-system, BlinkMacSystemFont, &quot;Segoe WPC&quot;, &quot;Segoe UI&quot;, Ubuntu, &quot;Droid Sans&quot;, sans-serif, &quot;PingFang SC&quot;; font-size: 9px; font-weight: normal; text-rendering: geometricprecision;"><tspan>kernel_constraint</tspan><tspan> = </tspan></text></g><g class="node-argument"><rect rx="3" ry="3" x="3" y="53.4375" width="91.484375" height="12.609375" style="fill: transparent;"/><text xml:space="preserve" x="6" y="63.140625" style="font-family: -apple-system, BlinkMacSystemFont, &quot;Segoe WPC&quot;, &quot;Segoe UI&quot;, Ubuntu, &quot;Droid Sans&quot;, sans-serif, &quot;PingFang SC&quot;; font-size: 9px; font-weight: normal; text-rendering: geometricprecision;"><tspan>units</tspan><tspan> = 1</tspan></text></g><line class="node" x1="0" x2="97.484375" y1="0" y2="0" style="stroke: rgb(51, 51, 51); fill: none; stroke-width: 1px;"/></g><path class="node node-border" d="M5,0h87.484375a5,5 0 0 1 5,5v80.015625a5,5 0 0 1 -5,5h-87.484375a5,5 0 0 1 -5,-5v-80.015625a5,5 0 0 1 5,-5z" style="stroke: rgb(51, 51, 51); fill: none; stroke-width: 1px;"/></g><g class="node" transform="translate(702.0625,73.2265625)" style=""><g class="node-item graph-item-output" transform="translate(0,0)"><path d="M5,0h35.828125a5,5 0 0 1 5,5v10.96875a5,5 0 0 1 -5,5h-35.828125a5,5 0 0 1 -5,-5v-10.96875a5,5 0 0 1 5,-5z" style="stroke: rgb(0, 0, 0); fill: rgb(238, 238, 238); stroke-width: 0px;"/><text x="6" y="14.640625" style="font-family: -apple-system, BlinkMacSystemFont, &quot;Segoe WPC&quot;, &quot;Segoe UI&quot;, Ubuntu, &quot;Droid Sans&quot;, sans-serif, &quot;PingFang SC&quot;; font-size: 11px; text-rendering: geometricprecision;">dense</text></g><path class="node node-border" d="M5,0h35.828125a5,5 0 0 1 5,5v10.96875a5,5 0 0 1 -5,5h-35.828125a5,5 0 0 1 -5,-5v-10.96875a5,5 0 0 1 5,-5z" style="stroke: rgb(51, 51, 51); fill: none; stroke-width: 1px;"/></g></g></g></svg>